<svg xmlns="http://www.w3.org/2000/svg" viewBox="0 0 1120 420" width="1120" height="420"
     role="img" aria-label="Strangler Fig diagram: new business flows pass through Orbit into Rust services and AI while the remaining flows still reach Ingenium COBOL, with the proportion shifting over time.">
  <defs>
    <linearGradient id="legacy" x1="0" y1="0" x2="1" y2="0">
      <stop offset="0" stop-color="#8FA3BF" stop-opacity=".55"/>
      <stop offset="1" stop-color="#8FA3BF" stop-opacity=".18"/>
    </linearGradient>
    <linearGradient id="modern" x1="0" y1="0" x2="1" y2="0">
      <stop offset="0" stop-color="#64FFDA" stop-opacity=".2"/>
      <stop offset="1" stop-color="#64FFDA" stop-opacity=".85"/>
    </linearGradient>
    <style>
      .lbl   { font: 600 15px 'Inter', system-ui, sans-serif; fill: #E6EDF7; }
      .small { font: 500 12px 'Inter', system-ui, sans-serif; fill: #93A7C4; }
      .tag   { font: 700 12px 'JetBrains Mono', ui-monospace, monospace; fill: #64FFDA; letter-spacing: .08em; }
      .phase { font: 700 13px 'Inter', system-ui, sans-serif; fill: #FFBE6B; }
      .box   { fill: rgba(255,255,255,.04); stroke: rgba(136,173,214,.28); }
    </style>
  </defs>

  <rect width="1120" height="420" rx="18" fill="#0A192F"/>

  <rect class="box" x="16" y="150" width="150" height="110" rx="14"/>
  <text class="lbl" x="91" y="196" text-anchor="middle">Digital channels</text>
  <text class="small" x="91" y="218" text-anchor="middle">web · app · partners</text>

  <rect x="206" y="120" width="120" height="170" rx="14" fill="rgba(100,255,218,.08)" stroke="#64FFDA" stroke-opacity=".55"/>
  <text class="tag" x="266" y="188" text-anchor="middle">ORBIT</text>
  <text class="small" x="266" y="210" text-anchor="middle">REST API</text>
  <text class="small" x="266" y="228" text-anchor="middle">facade</text>

  <path d="M166 205 H206" stroke="#8FA3BF" stroke-opacity=".6" stroke-width="2"/>
  <path d="M198 199 l10 6 -10 6 z" fill="#8FA3BF" fill-opacity=".8"/>

  <path d="M326 130 C 560 130, 720 150, 1010 176 L1010 250 C 720 254, 560 268, 326 282 Z" fill="url(#legacy)"/>
  <path d="M326 282 C 560 300, 720 320, 1010 336 L1010 262 C 720 258, 560 288, 326 282 Z" fill="url(#modern)"/>

  <text class="lbl" x="470" y="196">Ingenium · COBOL</text>
  <text class="small" x="470" y="216">existing business logic, still serving customers</text>
  <text class="lbl" x="700" y="316" text-anchor="middle">Rust services + AI Agent</text>
  <text class="small" x="700" y="336" text-anchor="middle">flows reimplemented, run in parallel and reconciled</text>

  <rect class="box" x="1024" y="150" width="80" height="110" rx="14"/>
  <text class="tag" x="1064" y="200" text-anchor="middle">CORE</text>
  <text class="small" x="1064" y="220" text-anchor="middle">new</text>

  <path d="M326 384 H1080" stroke="rgba(136,173,214,.35)" stroke-width="1.5"/>
  <path d="M1072 379 l10 5 -10 5 z" fill="rgba(136,173,214,.6)"/>
  <g>
    <circle cx="380" cy="384" r="4" fill="#FFBE6B"/><text class="phase" x="380" y="368" text-anchor="middle">01 Wrap</text>
    <circle cx="600" cy="384" r="4" fill="#FFBE6B"/><text class="phase" x="600" y="368" text-anchor="middle">02 Redirect</text>
    <circle cx="820" cy="384" r="4" fill="#FFBE6B"/><text class="phase" x="820" y="368" text-anchor="middle">03 Replace</text>
    <circle cx="1020" cy="384" r="4" fill="#FFBE6B"/><text class="phase" x="1020" y="368" text-anchor="middle">04 Retire</text>
  </g>

  <text class="small" x="326" y="46">One API facade — no &quot;big bang&quot; day</text>
  <path d="M326 60 H1080" stroke="rgba(136,173,214,.2)" stroke-dasharray="4 6"/>
</svg>
